<?xml version="1.0" encoding="utf-8"?>
<!-- Generator: Adobe Illustrator 21.0.2, SVG Export Plug-In . SVG Version: 6.00 Build 0)  -->
<svg version="1.1" id="Layer_1" xmlns="http://www.w3.org/2000/svg" xmlns:xlink="http://www.w3.org/1999/xlink" x="0px" y="0px"
	 viewBox="0 0 200.7 106.5" style="enable-background:new 0 0 200.7 106.5;" xml:space="preserve">
<style type="text/css">
	.st0{fill:#E30613;}
</style>
<g>
	<path d="M33.6,104.3c-1.6,0-2.6-0.5-3.3-1l0.7-1.2c0.5,0.4,1.4,0.8,2.5,0.8c1,0,2.2-0.5,2.2-1.6c0-1.9-2.8-2.3-4.2-3.8
		c-0.5-0.5-0.8-1.2-0.8-2.1c0-1.6,1.3-3,3.5-3c1.2,0,2.1,0.3,2.7,0.6l0,1.5c-0.7-0.4-1.6-0.8-2.6-0.8c-1.1,0-2,0.4-2,1.5
		c0,2.4,5.1,2.4,5.1,5.9C37.4,103.1,35.8,104.3,33.6,104.3z"/>
	<path d="M42.5,94.1c1-1,2.5-1.6,4.1-1.6c1.8,0,3.3,0.7,4.3,1.8c0.9,1,1.5,2.5,1.5,4.1c0,1.8-0.6,3.3-1.7,4.3c-1,1-2.4,1.6-4.1,1.6
		c-1.6,0-2.9-0.5-4-1.4c-1.1-1.1-1.8-2.6-1.8-4.4C40.9,96.7,41.5,95.2,42.5,94.1z M46.6,93.9c-2.5,0-4.1,1.8-4.1,4.5
		c0,2.8,1.6,4.5,4.1,4.5s4.1-1.8,4.1-4.5C50.7,95.8,49.2,93.9,46.6,93.9z"/>
	<path d="M64.4,103.1c-0.7,0.7-1.8,1.2-3.4,1.2c-1.5,0-2.5-0.4-3.2-1c-0.9-0.9-1.1-2.2-1.1-3.3v-7.4h1.6v7.3c0,0.8,0.2,1.7,0.8,2.3
		c0.4,0.5,1.1,0.8,2,0.8c1.1,0,1.8-0.3,2.2-0.8c0.5-0.5,0.7-1.3,0.7-2.2v-7.4h1.6v7.5C65.4,101.2,65.1,102.3,64.4,103.1z"/>
	<path d="M77.3,94h-3.2v10.2h-1.6V94h-3.3v-1.4h8.6L77.3,94z"/>
	<path d="M89,104.1V99H83v5.2h-1.6V92.6H83v5H89v-5h1.6v11.5H89z"/>
	<path d="M102.6,104.1l-1.2-3H97l-1.1,3h-1.6l4.4-11.6h1l4.5,11.6H102.6z M99.7,96.3c-0.2-0.6-0.4-1-0.4-1.4h0
		c-0.1,0.4-0.2,0.9-0.5,1.4l-1.3,3.5h3.4L99.7,96.3z"/>
	<path d="M117.5,104.1v-7.8c0-0.4,0-0.7,0-1.2h0c-0.2,0.5-0.4,0.9-0.6,1.2l-2.9,4.6h-0.9l-3-4.6c-0.2-0.3-0.4-0.6-0.6-1.1h0
		c0.1,0.5,0.1,0.8,0.1,1.2v7.9h-1.6V92.6h1.5l3.5,5.2c0.3,0.5,0.5,0.8,0.6,1.1h0c0.1-0.3,0.3-0.6,0.6-1.1l3.3-5.2h1.6v11.5H117.5z"
		/>
	<path d="M126.2,100h-0.7v4.1h-1.6V92.6h2.6c2.4,0,4,1.3,4,3.6C130.5,98.2,129.3,100,126.2,100z M126.4,94h-0.9v4.7h0.9
		c1.7,0,2.4-1,2.4-2.4C128.8,94.9,128,94,126.4,94z"/>
	<path d="M141.7,94h-3.2v10.2h-1.6V94h-3.3v-1.4h8.6L141.7,94z"/>
	<path d="M146,94.1c1-1,2.5-1.6,4.1-1.6c1.8,0,3.3,0.7,4.3,1.8c0.9,1,1.5,2.5,1.5,4.1c0,1.8-0.6,3.3-1.7,4.3c-1,1-2.4,1.6-4.1,1.6
		c-1.6,0-2.9-0.5-4-1.4c-1.1-1.1-1.8-2.6-1.8-4.4C144.4,96.7,145,95.2,146,94.1z M150.2,93.9c-2.5,0-4.1,1.8-4.1,4.5
		c0,2.8,1.6,4.5,4.1,4.5s4.1-1.8,4.1-4.5C154.3,95.8,152.8,93.9,150.2,93.9z"/>
	<path d="M168.6,104.1l-5.6-7.4c-0.6-0.8-0.9-1.3-1.2-1.7h0c0,0.4,0.1,0.9,0.1,1.4v7.7h-1.6V92.6h1.6l5.4,7.2c0.7,0.9,1,1.4,1.3,1.8
		h0c0-0.4,0-0.9,0-1.5v-7.5h1.6v11.5H168.6z"/>
</g>
<g>
	<path d="M14.1,63.2c-1,1-2.5,1.6-4.7,1.6c-2.1,0-3.4-0.6-4.3-1.4c-1.3-1.3-1.6-3.2-1.6-4.7V48.1h1.8v10.6c0,1.1,0.2,2.5,1.2,3.4
		c0.6,0.7,1.6,1.1,3,1.1c1.6,0,2.6-0.4,3.3-1.1c0.7-0.8,1-1.9,1-3.2V48.1h1.8v11C15.6,60.6,15.1,62.1,14.1,63.2"/>
	<path d="M39.7,64.6l-8.3-11.1c-1-1.3-1.4-1.9-1.7-2.6h-0.1c0,0.6,0.1,1.1,0.1,2v11.7h-1.8V48.1h1.9l8,10.7c1.1,1.5,1.6,2.1,1.9,2.8
		h0c0-0.6,0-1.1,0-2V48.1h1.8v16.5H39.7z"/>
	<rect x="53.6" y="48.1" width="1.8" height="16.5"/>
	<path d="M73.3,64.7h-1l-6.5-16.5h1.9l4.2,11c0.3,0.8,0.6,1.7,0.9,2.5H73c0.3-0.8,0.6-1.6,0.9-2.5l4.6-11h1.9L73.3,64.7z"/>
	<polygon points="90.8,64.6 90.8,48.1 98.9,48.1 98.2,49.8 92.6,49.8 92.6,55.3 98.1,55.3 98.1,57 92.6,57 92.6,62.9 99,62.9 
		99,64.6 	"/>
	<path d="M118.5,64.6c-2.6-4.2-4.2-7-5-7h-1.6v7H110V48.1h3.3c4,0,5.6,2,5.6,4.5c0,2.4-1.4,3.7-3.2,4.4v0c0.5,0.3,2.4,3.3,5.1,7.5
		H118.5z M113.4,49.8h-1.6v6.1h1.5c2.1,0,3.6-1.4,3.6-3.1C116.8,51.2,116,49.8,113.4,49.8"/>
	<path d="M134.9,64.9c-2.1,0-3.6-0.7-4.5-1.3l0.9-1.5c0.6,0.5,2,1.2,3.6,1.2c1.5,0,3.3-0.7,3.3-2.5c0-2.9-3.9-3.5-6-5.7
		c-0.7-0.8-1.2-1.7-1.2-3c0-2.3,1.7-4.1,4.7-4.1c1.7,0,2.9,0.4,3.6,0.8v1.9c-0.9-0.6-2.2-1.1-3.6-1.1c-1.6,0-3,0.7-3,2.2
		c0,3.7,7.3,3.7,7.3,8.6C140.1,63.1,137.8,64.9,134.9,64.9"/>
	<rect x="151.2" y="48.1" width="1.8" height="16.5"/>
	<polygon points="174.8,49.8 170.1,49.8 170.1,64.6 168.3,64.6 168.3,49.8 163.5,49.8 163.5,48.1 175.4,48.1 	"/>
	<path d="M192.1,58v6.6h-1.8V58l-5.5-9.8h2l2.9,5.3c0.5,0.9,1.1,1.9,1.5,2.7h0c0.4-0.9,0.9-1.9,1.4-2.7l2.8-5.3h1.9L192.1,58z"/>
	<path class="st0" d="M11.6,35C7,35,3.7,33.5,1.5,32l2.5-4.5c1.8,1.2,4.3,2.5,7.4,2.5c2.6,0,5.5-1,5.5-3.8c0-4.7-8-5.6-12-10.1
		c-1.3-1.4-2.1-3.4-2.1-5.9c0-4.9,3.8-9.1,10.8-9.1c3.5,0,6.3,0.8,8.1,1.8l-0.1,5.4c-2.6-1.4-5-2.3-7.7-2.3C11.1,6.2,9,7.4,9,9.6
		c0,6.1,14.3,5.8,14.3,16C23.2,31.4,18.1,35,11.6,35"/>
	<path class="st0" d="M61,30.3c-3,3-7.1,4.8-12.1,4.8c-4.8,0-8.8-1.4-11.7-4c-3.3-3-5.2-7.5-5.2-12.6c0-4.9,1.7-9.2,4.8-12.3
		c3-3,7.1-4.8,12.1-4.8c5.3,0,9.7,1.9,12.6,5.1c2.7,3,4.2,7.1,4.2,11.7C65.7,22.9,64.1,27.3,61,30.3 M48.9,6.3
		c-6.2,0-10.5,4.5-10.5,11.9c0,7.5,4.3,11.9,10.5,11.9c6.1,0,10.4-4.5,10.4-11.9C59.3,11,55.2,6.3,48.9,6.3"/>
	<polygon class="st0" points="76.3,34.5 76.3,1.6 82.4,1.6 82.4,29.4 94.2,29.4 94.2,34.5 	"/>
	<polygon class="st0" points="104,34.5 104,1.6 122.3,1.6 120.7,6.6 110,6.6 110,15.2 120.7,15.2 120.7,20.2 110,20.2 110,29.5 
		122.3,29.5 122.3,34.5 	"/>
	<path class="st0" d="M157.8,34.5l-14.9-19.3c-1.4-1.9-2.4-3.1-3.2-4.5h-0.1c0.1,1.1,0.2,2.9,0.2,4.4v19.4h-6v-33h6.1l14.4,18.6
		c1.5,2,2.4,3.3,3.2,4.6h0.1c-0.1-1.4-0.1-3.3-0.1-4.8V1.6h6v33H157.8z"/>
	<polygon class="st0" points="197.6,6.6 188.6,6.6 188.6,34.5 182.5,34.5 182.5,6.6 172.9,6.6 172.9,1.6 199,1.6 	"/>
	<rect x="3.4" y="78.2" width="194" height="1.3"/>
</g>
</svg>
